0
SECTION
2
HEADER
9
$INSUNITS
70
1
9
$ACADVER
1
AC1014
9
$HANDSEED
5
FFFF
0
ENDSEC
0
SECTION
2
TABLES
0
TABLE
2
VPORT
5
8
100
AcDbSymbolTable
0
ENDTAB
0
TABLE
2
LTYPE
5
5
100
AcDbSymbolTable
0
LTYPE
5
14
100
AcDbSymbolTableRecord
100
AcDbLinetypeTableRecord
2
BYBLOCK
70
0
0
LTYPE
5
15
100
AcDbSymbolTableRecord
100
AcDbLinetypeTableRecord
2
BYLAYER
70
0
0
LTYPE
5
16
100
AcDbSymbolTableRecord
100
AcDbLinetypeTableRecord
2
DASHED
70
0
3
Dashed __ __ __ __ __ __ __ __ __ __ __ __ __ _
72
65
73
2
40
0.75
49
0.5
74
0
49
-0.25
74
0
0
ENDTAB
0
TABLE
2
LAYER
5
2
100
AcDbSymbolTable
70
2
0
LAYER
5
50
100
AcDbSymbolTableRecord
100
AcDbLayerTableRecord
2
0
70
0
62
7
6
CONTINUOUS
0
ENDTAB
0
TABLE
2
STYLE
5
3
100
AcDbSymbolTable
70
1
0
STYLE
5
11
100
AcDbSymbolTableRecord
100
AcDbTextStyleTableRecord
2
STANDARD
70
0
0
ENDTAB
0
TABLE
2
VIEW
5
6
100
AcDbSymbolTable
70
0
0
ENDTAB
0
TABLE
2
UCS
5
7
100
AcDbSymbolTable
70
0
0
ENDTAB
0
TABLE
2
APPID
5
9
100
AcDbSymbolTable
70
2
0
APPID
5
12
100
AcDbSymbolTableRecord
100
AcDbRegAppTableRecord
2
ACAD
70
0
0
ENDTAB
0
TABLE
2
DIMSTYLE
5
A
100
AcDbSymbolTable
70
1
0
ENDTAB
0
TABLE
2
BLOCK_RECORD
5
1
100
AcDbSymbolTable
70
1
0
BLOCK_RECORD
5
1F
100
AcDbSymbolTableRecord
100
AcDbBlockTableRecord
2
*MODEL_SPACE
0
BLOCK_RECORD
5
1B
100
AcDbSymbolTableRecord
100
AcDbBlockTableRecord
2
*PAPER_SPACE
0
ENDTAB
0
ENDSEC
0
SECTION
2
BLOCKS
0
BLOCK
5
20
100
AcDbEntity
100
AcDbBlockBegin
2
*MODEL_SPACE
0
ENDBLK
5
21
100
AcDbEntity
100
AcDbBlockEnd
0
BLOCK
5
1C
100
AcDbEntity
100
AcDbBlockBegin
2
*PAPER_SPACE
0
ENDBLK
5
1D
100
AcDbEntity
100
AcDbBlockEnd
0
ENDSEC
0
SECTION
2
ENTITIES
0
LWPOLYLINE
5
100
100
AcDbEntity
8
0
100
AcDbPolyline
90
16
70
1
43
0.0
10
2.7504956372280032
20
2.3989107505717366
42
0.19891236737965848
10
2.6772723325246401
20
2.5756874458683732
10
2.5737189419313662
20
2.6792408364616471
42
0.19891236737965884
10
2.3969422466347292
20
2.7524641411650101
10
-2.397919476115729
20
2.7524641411650101
42
0.19891236737965778
10
-2.5746961714123651
20
2.6792408364616476
10
-2.6782495620056399
20
2.5756874458683736
42
0.19891236737965884
10
-2.7514728667090029
20
2.3989107505717366
10
-2.7514728667090029
20
-2.3959509721787255
42
0.19891236737965851
10
-2.6782495620056403
20
-2.5727276674753621
10
-2.5746961714123664
20
-2.676281058068636
42
0.19891236737965884
10
-2.3979194761157294
20
-2.7495043627719991
10
2.3969422466347283
20
-2.7495043627719991
42
0.19891236737965778
10
2.5737189419313644
20
-2.6762810580686365
10
2.6772723325246397
20
-2.5727276674753621
42
0.19891236737965884
10
2.7504956372280027
20
-2.3959509721787255
0
CIRCLE
5
101
100
AcDbEntity
8
0
100
AcDbCircle
10
-2.5236961714123667
20
2.5246874458683735
30
0
40
0.059055118110236074
210
0
220
0
230
1
0
CIRCLE
5
102
100
AcDbEntity
8
0
100
AcDbCircle
10
2.5227189419313665
20
2.5246874458683735
30
0
40
0.059055118110236074
210
0
220
0
230
1
0
CIRCLE
5
103
100
AcDbEntity
8
0
100
AcDbCircle
10
-2.5236961714123667
20
-2.5217276674753628
30
0
40
0.059055118110236074
210
0
220
0
230
1
0
CIRCLE
5
104
100
AcDbEntity
8
0
100
AcDbCircle
10
2.5227189419313665
20
-2.5217276674753628
30
0
40
0.059055118110236421
210
0
220
0
230
1
0
LWPOLYLINE
5
105
100
AcDbEntity
8
0
100
AcDbPolyline
90
4
70
1
43
0.0
10
0.66049563722800253
20
0.66246414116500951
10
0.66049563722800253
20
-0.65950436277199898
10
-0.66147286670900529
20
-0.65950436277199898
10
-0.66147286670900529
20
0.66246414116500951
0
LWPOLYLINE
5
106
100
AcDbEntity
8
0
100
AcDbPolyline
90
4
70
1
43
0.0
10
2.3104956372280028
20
2.3124641411650106
10
2.3104956372280028
20
0.99049563722800216
10
0.98852713329099606
20
0.99049563722800216
10
0.98852713329099606
20
2.3124641411650106
0
LWPOLYLINE
5
107
100
AcDbEntity
8
0
100
AcDbPolyline
90
4
70
1
43
0.0
10
-2.3114728667090052
20
0.66246414116500951
10
-0.98950436277199727
20
0.66246414116500951
10
-0.98950436277199727
20
-0.65950436277199898
10
-2.3114728667090052
20
-0.65950436277199898
0
LWPOLYLINE
5
108
100
AcDbEntity
8
0
100
AcDbPolyline
90
4
70
1
43
0.0
10
-0.66147286670900396
20
2.3124641411650106
10
0.66049563722800242
20
2.3124641411650106
10
0.66049563722800253
20
0.99049563722800216
10
-0.66147286670900385
20
0.99049563722800216
0
LWPOLYLINE
5
109
100
AcDbEntity
8
0
100
AcDbPolyline
90
4
70
1
43
0.0
10
0.98852713329099684
20
-0.98753585883499095
10
2.3104956372280028
20
-0.98753585883499095
10
2.3104956372280028
20
-2.3095043627719991
10
0.98852713329099684
20
-2.3095043627719991
0
LWPOLYLINE
5
110
100
AcDbEntity
8
0
100
AcDbPolyline
90
4
70
1
43
0.0
10
0.98852713329099473
20
0.66246414116500951
10
2.3104956372280028
20
0.66246414116500951
10
2.3104956372280028
20
-0.65950436277199898
10
0.98852713329099473
20
-0.65950436277199898
0
LWPOLYLINE
5
111
100
AcDbEntity
8
0
100
AcDbPolyline
90
4
70
1
43
0.0
10
-2.3114728667090034
20
-0.98753585883499095
10
-0.98950436277199727
20
-0.98753585883499095
10
-0.98950436277199727
20
-2.3095043627719991
10
-2.3114728667090034
20
-2.3095043627719991
0
LWPOLYLINE
5
112
100
AcDbEntity
8
0
100
AcDbPolyline
90
4
70
1
43
0.0
10
-2.3114728667090039
20
2.3124641411650106
10
-0.98950436277199705
20
2.3124641411650106
10
-0.98950436277199705
20
0.99049563722800216
10
-2.3114728667090039
20
0.99049563722800216
0
LWPOLYLINE
5
113
100
AcDbEntity
8
0
100
AcDbPolyline
90
4
70
1
43
0.0
10
-0.66147286670900352
20
-0.98753585883499095
10
0.66049563722800253
20
-0.98753585883499095
10
0.66049563722800253
20
-2.3095043627719991
10
-0.66147286670900352
20
-2.3095043627719991
0
ENDSEC
0
SECTION
2
OBJECTS
0
DICTIONARY
5
C
100
AcDbDictionary
3
ACAD_GROUP
350
D
3
ACAD_MLINESTYLE
350
17
0
DICTIONARY
5
D
100
AcDbDictionary
0
DICTIONARY
5
1A
330
C
100
AcDbDictionary
0
DICTIONARY
5
17
100
AcDbDictionary
0
ENDSEC
0
EOF
